<svg width="60" height="59" viewBox="0 0 60 59" fill="none" xmlns="http://www.w3.org/2000/svg">
<path fill-rule="evenodd" clip-rule="evenodd" d="M24.0956 7.84584C23.5023 8.35143 23.2057 8.60424 22.8889 8.81658C22.1626 9.30334 21.347 9.64117 20.4893 9.8105C20.1151 9.88438 19.7266 9.91538 18.9496 9.97739C16.9973 10.1332 16.0211 10.2111 15.2067 10.4987C13.323 11.1641 11.8414 12.6457 11.1761 14.5294C10.8884 15.3438 10.8105 16.3199 10.6547 18.2722C10.5927 19.0493 10.5617 19.4378 10.4878 19.812C10.3185 20.6697 9.98068 21.4853 9.49392 22.2115C9.28158 22.5283 9.02878 22.825 8.52318 23.4183C7.25287 24.9089 6.61768 25.6543 6.24521 26.4335C5.38373 28.2359 5.38373 30.3313 6.24521 32.1337C6.61768 32.913 7.25285 33.6583 8.52318 35.149C9.02872 35.7422 9.28159 36.0389 9.49392 36.3557C9.98068 37.0819 10.3185 37.8975 10.4878 38.7553C10.5617 39.1294 10.5927 39.518 10.6547 40.295C10.8105 42.2473 10.8884 43.2235 11.1761 44.0379C11.8414 45.9215 13.323 47.4032 15.2067 48.0685C16.0211 48.3561 16.9973 48.434 18.9496 48.5898C19.7266 48.6519 20.1151 48.6829 20.4893 48.7567C21.347 48.9261 22.1626 49.2639 22.8889 49.7507C23.2057 49.963 23.5023 50.2158 24.0956 50.7214C25.5863 51.9917 26.3316 52.6269 27.1109 52.9994C28.9133 53.8609 31.0086 53.8609 32.811 52.9994C33.5903 52.6269 34.3356 51.9917 35.8263 50.7214C36.4196 50.2158 36.7162 49.963 37.0331 49.7507C37.7593 49.2639 38.5749 48.9261 39.4326 48.7567C39.8068 48.6829 40.1953 48.6519 40.9723 48.5898C42.9246 48.434 43.9008 48.3561 44.7152 48.0685C46.5989 47.4032 48.0805 45.9215 48.7458 44.0379C49.0335 43.2235 49.1114 42.2473 49.2672 40.295C49.3292 39.518 49.3602 39.1294 49.4341 38.7553C49.6034 37.8975 49.9412 37.082 50.428 36.3557C50.6403 36.0389 50.8931 35.7423 51.3987 35.149C52.6691 33.6583 53.3042 32.913 53.6767 32.1337C54.5382 30.3313 54.5382 28.2359 53.6767 26.4335C53.3042 25.6543 52.6691 24.9089 51.3987 23.4183C50.8931 22.825 50.6403 22.5283 50.428 22.2115C49.9412 21.4853 49.6034 20.6697 49.4341 19.812C49.3602 19.4378 49.3292 19.0493 49.2672 18.2722C49.1114 16.3199 49.0335 15.3438 48.7458 14.5294C48.0805 12.6457 46.5989 11.1641 44.7152 10.4987C43.9008 10.2111 42.9246 10.1332 40.9723 9.97739C40.1953 9.91538 39.8068 9.88438 39.4326 9.8105C38.5749 9.64117 37.7593 9.30334 37.0331 8.81658C36.7162 8.60423 36.4196 8.35144 35.8263 7.84584C34.3356 6.5755 33.5903 5.94034 32.811 5.56787C31.0086 4.70638 28.9133 4.70638 27.1109 5.56787C26.3316 5.94033 25.5863 6.57552 24.0956 7.84584ZM40.6156 24.0778C41.3899 23.3035 41.3899 22.0481 40.6156 21.2738C39.8413 20.4995 38.5859 20.4995 37.8116 21.2738L25.9955 33.0899L22.1103 29.2047C21.336 28.4304 20.0806 28.4304 19.3063 29.2047C18.532 29.979 18.532 31.2344 19.3063 32.0087L24.5935 37.2959C25.3678 38.0702 26.6232 38.0702 27.3975 37.2959L40.6156 24.0778Z" fill="#1F3984"/>
</svg>
